
<?xml version="1.0" standalone="no"?>
<!DOCTYPE svg PUBLIC "-//W3C//DTD SVG 20010904//EN"
 "http://www.w3.org/TR/2001/REC-SVG-20010904/DTD/svg10.dtd">
<!-- Re‑colored with SliceMeUp palette -->
<svg version="1.0" xmlns="http://www.w3.org/2000/svg"
     width="1024pt" height="1024pt" viewBox="0 0 1024 1024"
     preserveAspectRatio="xMidYMid meet">

  <!-- background & border -->
  <rect width="100%" height="100%" fill="#fffaee" stroke="#cccccc" stroke-width="4"/>

  <g transform="translate(0,1024) scale(0.1,-0.1)" fill="#da2f04" stroke="none">
    <!-- primary‑colored paths (was black) -->

    <path d="M2713 7885 c-452 -69 -983 -311 -1270 -579 -262 -245 -355 -611 -242
    -951 34 -101 60 -150 239 -455 212 -360 409 -697 500 -855 48 -82 126 -217
    175 -300 48 -82 126 -215 173 -295 218 -372 258 -441 308 -524 30 -49 54 -90
    54 -91 0 -2 45 -78 100 -171 103 -173 117 -209 107 -271 -12 -69 -96 -123
    -191 -123 -146 0 -286 48 -543 186 -58 31 -76 37 -90 28 -28 -17 -233 -245
    -250 -278 -23 -43 -4 -93 50 -132 299 -220 681 -330 1024 -295 289 30 511 132
    718 332 168 162 280 360 333 584 22 94 26 133 26 270 0 118 -5 182 -18 245
    -52 240 -159 434 -345 620 -124 124 -250 223 -605 478 -159 114 -398 285 -530
    380 -133 95 -299 214 -370 264 -374 265 -481 373 -533 535 -25 81 -30 185 -12
    263 74 322 545 628 1164 756 125 26 533 26 675 1 221 41 418 102 600 188 142
    68 233 127 225 148 -4 9 -53 -97 -109 -196 -109 -190 -213 -374 -524
    -930 -226 -405 -241 -432 -317 -558 -46 -78 -56 -103 -48 -115 18 -31 90 -74
    123 -75 33 -2 34 0 120 153 92 166 189 338 333 595 49 88 175 313 280 500 244
    436 257 459 366 650 50 87 91 165 91 173 0 36 -37 75 -127 135 -272 179 -592
    302 -959 368 -155 28 -558 36 -701 14z"/>
    <path d="M3420 7070 c-429 -58 -763 -325 -826 -661 -18 -92 -15 -242 6 -336
    l12 -53 93 0 c290 0 521 114 680 335 120 168 175 359 175 611 l0 114 -42 -1
    c-24 -1 -68 -5 -98 -9z m-281 -458 c-171 -180 -213 -221 -301 -293 -54 -44
    -98 -76 -98 -71 0 25 436 440 448 427 3 -3 -19 -31 -49 -63z"/>
    <path d="M5430 6781 l-25 -7 -3 -748 c-1 -545 1 -753 9 -762 15 -19 249 -20
    267 -2 9 9 12 190 12 753 0 407 -4 746 -8 753 -10 14 -211 25 -252 13z"/>
    <path d="M6040 6780 c-92 -11 -150 -72 -150 -158 0 -94 62 -159 161 -168 105
    -10 188 64 189 166 0 109 -81 175 -200 160z"/>
    <path d="M4605 6711 c-140 -40 -232 -112 -283 -221 -24 -50 -26 -67 -27 -180
    0 -115 2 -130 27 -182 33 -72 105 -144 183 -184 33 -17 120 -53 194 -79 74
    -26 151 -58 172 -71 117 -74 114 -222 -6 -284 -93 -48 -267 -37 -426 26 -48
    19 -91 34 -97 34 -15 0 -73 -169 -70 -204 3 -25 12 -34 62 -59 102 -50 234
    -78 371 -79 187 -1 310 39 410 133 101 95 141 200 133 344 -12 191 -116 312
    -335 389 -242 86 -281 106 -313 159 -30 49 -27 117 7 158 40 47 95 69 179 69
    98 0 178 -17 247 -52 33 -16 64 -27 71 -25 9 4 31 66 72 204 7 27 -79 70 -210
    103 -102 26 -274 26 -361 1z"/>
    <path d="M6815 6330 c-282 -39 -455 -252 -455 -559 0 -267 133 -455 375 -527
    81 -25 257 -25 340 0 78 23 173 74 180 96 5 17 -40 177 -54 193 -4 4 -43 -9
    -86 -30 -71 -33 -86 -37 -164 -37 -98 -1 -161 21 -218 76 -70 68 -102 218 -69
    330 46 158 163 232 331 209 38 -6 91 -21 118 -35 27 -15 55 -26 61 -26 17 0
    82 191 73 213 -9 23 -95 65 -169 82 -86 19 -191 25 -263 15z"/>
    <path d="M7785 6334 c-62 -10 -156 -46 -212 -83 -72 -46 -123 -108 -167 -201
    -43 -90 -60 -186 -54 -314 6 -125 37 -219 102 -310 144 -202 463 -263 738
    -139 93 42 94 44 58 157 -17 54 -34 96 -38 94 -4 -2 -36 -17 -72 -34 -165 -80
    -332 -70 -432 26 -34 33 -50 59 -62 99 -9 29 -13 57 -10 62 3 5 158 9 344 9
    253 0 341 3 346 12 14 22 6 213 -11 278 -55 211 -204 333 -418 344 -45 2 -95
    2 -112 0z m191 -248 c40 -24 72 -73 89 -137 8 -29 13 -55 11 -57 -5 -5 -429
    -2 -434 2 -8 9 20 85 46 127 43 67 97 91 188 86 43 -2 82 -11 100 -21z"/>
    <path d="M5952 6310 l-22 -9 2 -523 3 -523 130 0 130 0 3 520 c2 480 1 521
    -15 533 -20 14 -195 16 -231 2z"/>
    <path d="M4351 4981 c-11 -7 -17 -75 -27 -318 -7 -169 -20 -442 -29 -606 -9
    -164 -14 -302 -10 -305 13 -13 225 -8 234 6 8 14 31 534 31 705 0 59 4 107 8
    107 4 0 14 -17 22 -37 7 -21 64 -153 126 -293 l113 -255 109 -3 c79 -2 112 1
    119 10 6 7 63 137 127 288 64 151 121 284 126 295 6 13 9 -31 9 -125 1 -262
    23 -694 35 -702 20 -13 211 -9 228 5 14 11 15 32 8 182 -5 94 -16 359 -25 590
    -9 231 -21 430 -26 443 -8 21 -13 22 -138 22 -91 0 -131 -4 -138 -12 -6 -7
    -72 -159 -148 -338 -75 -179 -145 -339 -154 -357 l-16 -32 -64 147 c-205 469
    -254 578 -264 584 -17 11 -239 9 -256 -1z"/>
    <path d="M6616 4977 c-16 -12 -17 -40 -13 -437 4 -449 5 -460 55 -573 47 -106
    170 -199 300 -226 76 -16 238 -14 305 4 170 44 280 156 323 327 21 86 34 879
    14 903 -10 12 -36 15 -120 15 -60 0 -115 -3 -124 -6 -14 -5 -16 -52 -16 -423
    0 -446 -3 -475 -50 -541 -32 -45 -111 -80 -181 -80 -105 35 -165 35 -207 120
    l-27 55 -3 430 c-2 320 -6 431 -15 437 -21 13 -221 9 -241 -5z"/>
    <path d="M5980 4646 c-194 -56 -310 -225 -310 -451 0 -201 84 -345 247 -423
    71 -33 85 -36 191 -40 127 -5 197 6 280 45 70 33 76 46 52 126 -10 37 -21 71
    -25 77 -4 6 -24 1 -53 -14 -136 -69 -295 -62 -381 17 -28 26 -60 92 -61 125
    l0 22 285 0 285 0 6 26 c11 44 -4 195 -25 257 -37 107 -97 170 -206 218 -62
    27 -215 36 -285 15z m227 -204 c35 -24 63 -77 70 -131 l5 -36 -179 3 c-98 2
    -180 6 -182 8 -3 2 3 28 12 57 17 55 40 83 92 111 43 24 141 17 182 -12z"/>
    <path d="M8116 4641 c-27 -11 -66 -34 -87 -51 -38 -30 -55 -38 -45 -21 3 5 3
    23 0 40 l-6 31 -103 0 c-74 0 -106 -4 -114 -14 -8 -9 -10 -181 -9 -622 l3
    -609 115 0 115 0 3 193 c1 105 4 192 6 192 2 0 25 -10 52 -22 41 -19 67 -23
    154 -23 93 0 112 3 161 26 150 71 233 224 232 434 0 161 -35 265 -120 356 -64
    68 -133 100 -230 105 -62 4 -88 0 -127 -15z m145 -224 c57 -39 83 -98 87 -204
    4 -86 2 -96 -26 -156 -35 -75 -69 -103 -147 -120 -43 -9 -65 -8 -102 2 -84 22
    -83 18 -83 236 0 186 1 192 23 213 59 56 186 71 248 29z"/>

  </g>
</svg>
